<svg xmlns="http://www.w3.org/2000/svg" viewBox="0 0 1200 800" width="1200" height="800">
  <!-- Gradient background -->
  <defs>
    <linearGradient id="bgGradient" x1="0%" y1="0%" x2="100%" y2="100%">
      <stop offset="0%" style="stop-color:hsl(210, 100%, 25%);stop-opacity:0.9"/>
      <stop offset="50%" style="stop-color:hsl(210, 100%, 35%);stop-opacity:0.8"/>
      <stop offset="100%" style="stop-color:hsl(210, 100%, 45%);stop-opacity:0.7"/>
    </linearGradient>
    
    <linearGradient id="figureGradient" x1="0%" y1="0%" x2="100%" y2="100%">
      <stop offset="0%" style="stop-color:hsl(0, 0%, 15%);stop-opacity:0.8"/>
      <stop offset="100%" style="stop-color:hsl(0, 0%, 5%);stop-opacity:0.9"/>
    </linearGradient>
    
    <filter id="glow">
      <feGaussianBlur stdDeviation="3" result="coloredBlur"/>
      <feMerge> 
        <feMergeNode in="coloredBlur"/>
        <feMergeNode in="SourceGraphic"/>
      </feMerge>
    </filter>
  </defs>
  
  <!-- Background overlay -->
  <rect width="1200" height="800" fill="url(#bgGradient)"/>
  
  <!-- Geometric patterns -->
  <g opacity="0.1">
    <circle cx="100" cy="100" r="50" fill="white"/>
    <circle cx="1100" cy="150" r="30" fill="white"/>
    <circle cx="200" cy="700" r="40" fill="white"/>
    <circle cx="1000" cy="650" r="35" fill="white"/>
    
    <polygon points="50,300 100,250 150,300 100,350" fill="white"/>
    <polygon points="1050,500 1100,450 1150,500 1100,550" fill="white"/>
  </g>
  
  <!-- Main figure - stylized man training -->
  <g transform="translate(800, 200)">
    <!-- Torso -->
    <ellipse cx="0" cy="100" rx="45" ry="80" fill="url(#figureGradient)"/>
    
    <!-- Head -->
    <circle cx="0" cy="20" r="25" fill="url(#figureGradient)"/>
    
    <!-- Arms -->
    <ellipse cx="-35" cy="80" rx="12" ry="40" fill="url(#figureGradient)" transform="rotate(-20)"/>
    <ellipse cx="35" cy="80" rx="12" ry="40" fill="url(#figureGradient)" transform="rotate(20)"/>
    
    <!-- Legs -->
    <ellipse cx="-15" cy="160" rx="12" ry="50" fill="url(#figureGradient)"/>
    <ellipse cx="15" cy="160" rx="12" ry="50" fill="url(#figureGradient)"/>
    
    <!-- Dumbbell in hand -->
    <g transform="translate(-60, 60) rotate(-20)">
      <rect x="-20" y="-3" width="40" height="6" rx="3" fill="hsl(210, 100%, 60%)" filter="url(#glow)"/>
      <rect x="-25" y="-8" width="10" height="16" rx="2" fill="hsl(210, 100%, 60%)"/>
      <rect x="15" y="-8" width="10" height="16" rx="2" fill="hsl(210, 100%, 60%)"/>
    </g>
  </g>
  
  <!-- Equipment silhouettes -->
  <g transform="translate(200, 400)" opacity="0.3">
    <!-- Barbell -->
    <rect x="0" y="20" width="200" height="8" rx="4" fill="black"/>
    <rect x="-10" y="10" width="20" height="28" rx="3" fill="black"/>
    <rect x="190" y="10" width="20" height="28" rx="3" fill="black"/>
  </g>
  
  <g transform="translate(100, 550)" opacity="0.3">
    <!-- Weight plate -->
    <circle cx="30" cy="30" r="25" fill="black"/>
    <circle cx="30" cy="30" r="8" fill="hsl(210, 100%, 45%)"/>
  </g>
  
  <!-- Motivational elements -->
  <g opacity="0.2">
    <text x="150" y="200" font-family="Arial, sans-serif" font-size="24" font-weight="bold" fill="white" transform="rotate(-15)">FORÇA</text>
    <text x="950" y="350" font-family="Arial, sans-serif" font-size="20" font-weight="bold" fill="white" transform="rotate(10)">FOCO</text>
    <text x="300" y="650" font-family="Arial, sans-serif" font-size="18" font-weight="bold" fill="white">DETERMINAÇÃO</text>
  </g>
  
  <!-- Energy lines -->
  <g opacity="0.4">
    <path d="M 50 400 Q 300 300 550 450" stroke="hsl(210, 100%, 60%)" stroke-width="2" fill="none" filter="url(#glow)"/>
    <path d="M 650 200 Q 850 100 1050 250" stroke="hsl(210, 100%, 60%)" stroke-width="2" fill="none" filter="url(#glow)"/>
    <path d="M 100 600 Q 400 500 700 580" stroke="hsl(210, 100%, 60%)" stroke-width="2" fill="none" filter="url(#glow)"/>
  </g>
</svg>