<svg xmlns="http://www.w3.org/2000/svg" viewBox="0 0 200 200" width="200" height="200">
  <defs>
    <linearGradient id="blueGradient" x1="0%" y1="0%" x2="100%" y2="100%">
      <stop offset="0%" style="stop-color:hsl(210, 100%, 55%);stop-opacity:1"/>
      <stop offset="50%" style="stop-color:hsl(210, 100%, 45%);stop-opacity:1"/>
      <stop offset="100%" style="stop-color:hsl(210, 100%, 35%);stop-opacity:1"/>
    </linearGradient>
    
    <linearGradient id="blackGradient" x1="0%" y1="0%" x2="100%" y2="100%">
      <stop offset="0%" style="stop-color:hsl(0, 0%, 25%);stop-opacity:1"/>
      <stop offset="50%" style="stop-color:hsl(0, 0%, 15%);stop-opacity:1"/>
      <stop offset="100%" style="stop-color:hsl(0, 0%, 5%);stop-opacity:1"/>
    </linearGradient>
    
    <filter id="shadow" x="-50%" y="-50%" width="200%" height="200%">
      <feDropShadow dx="2" dy="2" stdDeviation="3" flood-color="rgba(0,0,0,0.5)"/>
    </filter>
  </defs>
  
  <!-- Background hexagon outline -->
  <polygon points="100,20 160,60 160,140 100,180 40,140 40,60" 
           fill="none" 
           stroke="hsl(0, 0%, 0%)" 
           stroke-width="4" 
           filter="url(#shadow)"/>
  
  <!-- Left blue section -->
  <polygon points="50,70 100,40 100,100 100,160 50,130" 
           fill="url(#blueGradient)" 
           stroke="hsl(0, 0%, 0%)" 
           stroke-width="2"/>
  
  <!-- Right black section -->
  <polygon points="100,40 150,70 150,130 100,160 100,100" 
           fill="url(#blackGradient)" 
           stroke="hsl(0, 0%, 0%)" 
           stroke-width="2"/>
  
  <!-- Central 'N' design -->
  <g transform="translate(100, 100)">
    <!-- White N letter -->
    <polygon points="-30,-40 -15,-40 15,20 15,-40 30,-40 30,40 15,40 -15,-20 -15,40 -30,40" 
             fill="hsl(0, 0%, 100%)" 
             opacity="1"/>
  </g>
  
  <!-- Decorative elements -->
  <circle cx="70" cy="50" r="3" fill="hsl(0, 0%, 100%)" opacity="0.8"/>
  <circle cx="130" cy="50" r="3" fill="hsl(0, 0%, 100%)" opacity="0.8"/>
  <circle cx="70" cy="150" r="3" fill="hsl(0, 0%, 100%)" opacity="0.8"/>
  <circle cx="130" cy="150" r="3" fill="hsl(0, 0%, 100%)" opacity="0.8"/>
</svg>