<svg xmlns="http://www.w3.org/2000/svg" viewBox="0 0 800 600" fill="none">
  <defs>
    <linearGradient id="equipGrad" x1="0%" y1="0%" x2="100%" y2="100%">
      <stop offset="0%" style="stop-color:#000000;stop-opacity:0.7"/>
      <stop offset="50%" style="stop-color:#0066cc;stop-opacity:0.3"/>
      <stop offset="100%" style="stop-color:#000000;stop-opacity:0.8"/>
    </linearGradient>
  </defs>
  
  <!-- Background -->
  <rect width="800" height="600" fill="url(#equipGrad)"/>
  
  <!-- Bench Press -->
  <g transform="translate(50,200)" opacity="0.4">
    <!-- Bench -->
    <rect x="20" y="40" width="200" height="20" fill="#0066cc" rx="10"/>
    <rect x="30" y="0" width="20" height="60" fill="#0099ff"/>
    <rect x="170" y="0" width="20" height="60" fill="#0099ff"/>
    
    <!-- Barbell rack -->
    <rect x="0" y="15" width="15" height="80" fill="#0066cc"/>
    <rect x="225" y="15" width="15" height="80" fill="#0066cc"/>
    <rect x="0" y="20" width="240" height="8" fill="#0099ff"/>
    
    <!-- Weight plates -->
    <circle cx="40" cy="24" r="18" fill="none" stroke="#0066cc" stroke-width="3"/>
    <circle cx="200" cy="24" r="18" fill="none" stroke="#0066cc" stroke-width="3"/>
  </g>
  
  <!-- Squat Rack -->
  <g transform="translate(400,150)" opacity="0.3">
    <!-- Rack frame -->
    <rect x="0" y="0" width="15" height="150" fill="#0066cc"/>
    <rect x="180" y="0" width="15" height="150" fill="#0066cc"/>
    <rect x="0" y="80" width="195" height="8" fill="#0099ff"/>
    <rect x="0" y="120" width="195" height="8" fill="#0099ff"/>
    
    <!-- Safety bars -->
    <rect x="30" y="110" width="135" height="6" fill="#0066cc"/>
  </g>
  
  <!-- Cable Machine -->
  <g transform="translate(600,100)" opacity="0.35">
    <!-- Main frame -->
    <rect x="0" y="0" width="120" height="200" fill="none" stroke="#0066cc" stroke-width="4"/>
    <rect x="20" y="20" width="80" height="160" fill="rgba(0,102,204,0.1)"/>
    
    <!-- Weight stack -->
    <rect x="30" y="30" width="20" height="140" fill="#0066cc"/>
    <g>
      <rect x="32" y="35" width="16" height="8" fill="#0099ff"/>
      <rect x="32" y="48" width="16" height="8" fill="#0099ff"/>
      <rect x="32" y="61" width="16" height="8" fill="#0099ff"/>
      <rect x="32" y="74" width="16" height="8" fill="#0099ff"/>
    </g>
    
    <!-- Pulley -->
    <circle cx="90" cy="40" r="8" fill="none" stroke="#0099ff" stroke-width="2"/>
    <line x1="90" y1="48" x2="90" y2="180" stroke="#0066cc" stroke-width="2"/>
  </g>
  
  <!-- Treadmill -->
  <g transform="translate(100,400)" opacity="0.3">
    <!-- Base -->
    <rect x="0" y="30" width="180" height="40" fill="#0066cc" rx="5"/>
    <!-- Belt -->
    <rect x="10" y="25" width="160" height="15" fill="#0099ff" rx="7"/>
    <!-- Console -->
    <rect x="150" y="0" width="40" height="35" fill="#0066cc" rx="3"/>
    <!-- Handrails -->
    <rect x="5" y="10" width="8" height="25" fill="#0099ff"/>
    <rect x="167" y="10" width="8" height="25" fill="#0099ff"/>
  </g>
  
  <!-- Free weights area -->
  <g transform="translate(350,400)" opacity="0.25">
    <!-- Dumbbell rack -->
    <rect x="0" y="40" width="150" height="20" fill="#0066cc"/>
    <rect x="10" y="30" width="10" height="40" fill="#0099ff"/>
    <rect x="40" y="30" width="10" height="40" fill="#0099ff"/>
    <rect x="70" y="30" width="10" height="40" fill="#0099ff"/>
    <rect x="100" y="30" width="10" height="40" fill="#0099ff"/>
    <rect x="130" y="30" width="10" height="40" fill="#0099ff"/>
    
    <!-- Dumbbells on rack -->
    <g opacity="0.8">
      <ellipse cx="15" cy="25" rx="8" ry="4" fill="#0066cc"/>
      <ellipse cx="45" cy="25" rx="10" ry="5" fill="#0066cc"/>
      <ellipse cx="75" cy="25" rx="12" ry="6" fill="#0066cc"/>
      <ellipse cx="105" cy="25" rx="14" ry="7" fill="#0066cc"/>
      <ellipse cx="135" cy="25" rx="16" ry="8" fill="#0066cc"/>
    </g>
  </g>
  
  <!-- Motivational elements -->
  <g opacity="0.2">
    <!-- Geometric patterns -->
    <polygon points="700,50 720,70 700,90 680,70" fill="#0099ff"/>
    <polygon points="50,50 70,70 50,90 30,70" fill="#0066cc"/>
    
    <!-- Abstract strength symbols -->
    <path d="M250 80 Q280 60 310 80 Q280 100 250 80" fill="#0066cc"/>
    <path d="M500 500 Q530 480 560 500 Q530 520 500 500" fill="#0099ff"/>
  </g>
  
  <!-- Subtle grid overlay -->
  <defs>
    <pattern id="gymGrid" patternUnits="userSpaceOnUse" width="40" height="40">
      <path d="M 40 0 L 0 0 0 40" fill="none" stroke="#0066cc" stroke-width="0.3" opacity="0.1"/>
    </pattern>
  </defs>
  <rect width="800" height="600" fill="url(#gymGrid)"/>
</svg>