<svg xmlns="http://www.w3.org/2000/svg" viewBox="0 0 1200 800" fill="none">
  <defs>
    <linearGradient id="gymBg" x1="0%" y1="0%" x2="100%" y2="100%">
      <stop offset="0%" style="stop-color:#000000;stop-opacity:0.8"/>
      <stop offset="50%" style="stop-color:#0066cc;stop-opacity:0.6"/>
      <stop offset="100%" style="stop-color:#000000;stop-opacity:0.9"/>
    </linearGradient>
    <pattern id="gymPattern" patternUnits="userSpaceOnUse" width="100" height="100">
      <rect width="100" height="100" fill="url(#gymBg)"/>
      <circle cx="50" cy="50" r="2" fill="#0066cc" opacity="0.3"/>
    </pattern>
  </defs>
  
  <!-- Background -->
  <rect width="1200" height="800" fill="url(#gymPattern)"/>
  
  <!-- Gym equipment silhouettes -->
  <!-- Dumbbells -->
  <g transform="translate(100,200)" opacity="0.2">
    <rect x="0" y="18" width="60" height="4" fill="#0099ff"/>
    <circle cx="0" cy="20" r="12" fill="#0066cc"/>
    <circle cx="60" cy="20" r="12" fill="#0066cc"/>
  </g>
  
  <g transform="translate(300,150)" opacity="0.15">
    <rect x="0" y="18" width="80" height="6" fill="#0099ff"/>
    <circle cx="0" cy="21" r="15" fill="#0066cc"/>
    <circle cx="80" cy="21" r="15" fill="#0066cc"/>
  </g>
  
  <!-- Barbell -->
  <g transform="translate(800,300)" opacity="0.2">
    <rect x="0" y="28" width="200" height="4" fill="#0099ff"/>
    <rect x="-20" y="15" width="20" height="30" fill="#0066cc"/>
    <rect x="200" y="15" width="20" height="30" fill="#0066cc"/>
  </g>
  
  <!-- Weight plates -->
  <circle cx="200" cy="600" r="40" fill="none" stroke="#0066cc" stroke-width="3" opacity="0.2"/>
  <circle cx="200" cy="600" r="30" fill="none" stroke="#0099ff" stroke-width="2" opacity="0.3"/>
  
  <circle cx="900" cy="150" r="35" fill="none" stroke="#0066cc" stroke-width="3" opacity="0.15"/>
  <circle cx="900" cy="150" r="25" fill="none" stroke="#0099ff" stroke-width="2" opacity="0.25"/>
  
  <!-- Abstract muscle/strength lines -->
  <path d="M50 400 Q200 350 350 400 T650 400" stroke="#0066cc" stroke-width="2" fill="none" opacity="0.2"/>
  <path d="M150 500 Q300 450 450 500 T750 500" stroke="#0099ff" stroke-width="1.5" fill="none" opacity="0.15"/>
  
  <!-- Geometric shapes for modern look -->
  <polygon points="1000,100 1050,150 1000,200 950,150" fill="#0066cc" opacity="0.1"/>
  <polygon points="1100,250 1150,300 1100,350 1050,300" fill="#0099ff" opacity="0.08"/>
  
  <!-- Subtle grid pattern -->
  <defs>
    <pattern id="grid" patternUnits="userSpaceOnUse" width="50" height="50">
      <path d="M 50 0 L 0 0 0 50" fill="none" stroke="#0066cc" stroke-width="0.5" opacity="0.1"/>
    </pattern>
  </defs>
  <rect width="1200" height="800" fill="url(#grid)"/>
</svg>