<svg xmlns="http://www.w3.org/2000/svg" viewBox="0 0 400 500" fill="none">
  <defs>
    <linearGradient id="muscleGrad" x1="0%" y1="0%" x2="100%" y2="100%">
      <stop offset="0%" style="stop-color:#0066cc;stop-opacity:0.3"/>
      <stop offset="100%" style="stop-color:#0099ff;stop-opacity:0.1"/>
    </linearGradient>
  </defs>
  
  <!-- Muscular silhouette -->
  <g fill="url(#muscleGrad)" stroke="#0066cc" stroke-width="2" opacity="0.6">
    <!-- Head -->
    <circle cx="200" cy="50" r="25"/>
    
    <!-- Torso -->
    <path d="M175 75 Q150 100 140 150 Q135 200 145 250 Q155 300 175 350 L225 350 Q245 300 255 250 Q265 200 260 150 Q250 100 225 75 Z"/>
    
    <!-- Arms -->
    <ellipse cx="110" cy="130" rx="20" ry="40" transform="rotate(-15 110 130)"/>
    <ellipse cx="90" cy="180" rx="15" ry="35" transform="rotate(-20 90 180)"/>
    
    <ellipse cx="290" cy="130" rx="20" ry="40" transform="rotate(15 290 130)"/>
    <ellipse cx="310" cy="180" rx="15" ry="35" transform="rotate(20 310 180)"/>
    
    <!-- Legs -->
    <ellipse cx="180" cy="400" rx="25" ry="60"/>
    <ellipse cx="220" cy="400" rx="25" ry="60"/>
  </g>
  
  <!-- Muscle definition lines -->
  <g stroke="#0099ff" stroke-width="1" fill="none" opacity="0.4">
    <path d="M190 120 Q200 130 210 120"/>
    <path d="M185 140 Q200 150 215 140"/>
    <path d="M180 160 Q200 170 220 160"/>
  </g>
</svg>